<?xml version="1.0" encoding="UTF-8" standalone="no"?> <svg width="24" height="24" viewBox="0 0 24 24" fill="none" xmlns="http://www.w3.org/2000/svg">
<path fill-rule="evenodd" clip-rule="evenodd" d="M7.29289 2.29289C7.68342 1.90237 8.31658 1.90237 8.70711 2.29289L12 5.58579L14.2929 3.29289C14.6834 2.90237 15.3166 2.90237 15.7071 3.29289C16.0976 3.68342 16.0976 4.31658 15.7071 4.70711L14.4142 6H21C22.6569 6 24 7.34315 24 9V17C24 18.6569 22.6569 20 21 20H20.4142L20.7071 20.2929C21.0976 20.6834 21.0976 21.3166 20.7071 21.7071C20.3166 22.0976 19.6834 22.0976 19.2929 21.7071L17.5858 20H6.41421L4.70711 21.7071C4.31658 22.0976 3.68342 22.0976 3.29289 21.7071C2.90237 21.3166 2.90237 20.6834 3.29289 20.2929L3.58579 20H3C1.34315 20 0 18.6569 0 17V9C0 7.34315 1.34315 6 3 6H9.58579L7.29289 3.70711C6.90237 3.31658 6.90237 2.68342 7.29289 2.29289ZM3 8C2.44772 8 2 8.44772 2 9V17C2 17.5523 2.44772 18 3 18H21C21.5523 18 22 17.5523 22 17V9C22 8.44772 21.5523 8 21 8H3Z" fill="#293644"/>
</svg>
