<svg xmlns="http://www.w3.org/2000/svg" width="18" height="20" viewBox="0 0 18 20" fill="none" class="ng-star-inserted"><path fill-rule="evenodd" clip-rule="evenodd" d="M5.73413 9.63787C5.4851 8.69782 6.69752 9.6968 6.952 9.95449C5.71704 7.88027 6.88184 5.43246 6.8882 5.41853C5.33932 5.34156 3.6354 5.19601 2.60475 6.35483C0.0332312 9.24785 1.5163 9.42536 1.15894 12.1927C1.00262 13.4025 0.264445 14.3412 0.175013 14.9671C0.0988507 15.4986 -0.0776494 17.9962 0.0385025 18.6177C0.0859449 18.8729 1.10096 18.8009 1.28836 18.818C1.4156 18.041 0.877196 18.0739 0.799034 17.1656C0.572184 14.5333 1.82168 14.8128 2.49823 12.4787C2.71036 12.7064 2.7549 13.1154 2.77216 13.4415C2.79398 13.8367 2.78834 14.1929 2.77435 14.5869C2.37663 14.8726 2.42171 14.6473 2.27447 15.0819C3.95822 15.5611 2.9972 11.7826 3.04282 11.2219C3.07263 10.854 3.18824 10.704 3.32966 10.5538C5.31242 13.0073 3.5376 13.859 3.55578 14.4414C3.72755 14.8455 3.91169 14.9057 4.06092 15.4123C4.17762 15.8096 4.18562 16.1464 4.33067 16.5552C4.64641 17.4481 5.16864 17.7799 6.16856 17.5867C6.02751 16.584 5.45475 17.1211 4.91689 15.9916C4.53607 15.1919 4.46246 14.696 4.84872 13.9938C5.91099 12.0635 5.92863 12.0775 5.73413 9.63733V9.63787ZM8.59249 8.8439H8.11206V7.24613C7.9083 7.35328 7.76143 7.40685 7.54367 7.48418V6.81771C7.79324 6.70396 8.10716 6.53752 8.2344 6.28393L8.28893 6.17678H8.78862V8.8439H8.59249ZM9.63186 11.2287C9.86816 11.2372 10.1166 11.2465 10.3822 11.2671L11.0297 15.2707C11.1024 15.8421 11.1055 17.0154 11.2194 17.4503C11.2862 17.7048 11.459 17.986 11.5412 18.2764C11.6568 18.6819 11.6177 19.0164 11.7593 19.3414C12.1974 19.6093 12.7554 19.8236 13.3356 19.4981C13.3847 19.3886 13.4047 19.3731 13.3242 19.2289C12.8025 18.3182 12.3063 20.1863 11.8915 14.576C11.8582 14.1296 11.7184 12.7761 12.0187 12.3928C11.856 12.1978 11.9505 7.93938 9.6324 11.2287H9.63186ZM13.2551 18.5907C13.3096 18.7041 13.3778 19.0729 13.5009 19.0832C13.6336 19.0954 13.8226 19.1125 13.9553 19.1C14.1409 19.0821 14.57 19.0464 14.6097 18.8448C14.6989 18.6127 14.6824 18.6069 14.5055 18.4114C13.9331 17.7787 13.5439 18.7166 13.4534 15.3471C13.3602 11.8946 13.3731 12.2071 13.7292 10.2517C12.9952 9.80395 12.7869 12.2339 12.0265 12.3993C12.6756 14.246 12.4909 16.9985 13.2551 18.5907ZM13.8155 6.93683L14.5144 3.03411C14.7162 2.8532 16.2658 2.8716 16.9634 2.4805C17.4066 2.23156 17.3633 2.28317 17.44 1.90744C17.4597 1.80922 17.4582 1.83261 17.3639 1.77636C16.3678 1.17972 16.7938 1.80957 15.2917 0.618436C14.0751 -0.345011 10.9241 -0.340547 11.6279 1.77439L12.0231 1.09578C12.4337 1.61367 11.8924 2.49443 11.378 3.70986C11.1536 4.2406 11.0215 4.44508 10.516 4.6767C10.227 4.80903 9.92687 4.94671 9.63077 5.06958L9.63913 5.06619C9.64385 5.07529 10.0319 6.66467 10.9813 7.89366C11.9265 9.11784 13.4312 9.97378 13.9069 8.5187C14.0649 8.03439 13.8342 7.46114 13.8161 6.93611L13.8155 6.93683Z" fill="currentColor"></path></svg>