<svg xmlns="http://www.w3.org/2000/svg" xmlns:xlink="http://www.w3.org/1999/xlink" version="1.1" id="Capa_1" x="0px" y="0px" width="512px" height="512px" viewBox="0 0 201.705 201.705" xml:space="preserve" style="enable-background: new 0 0 201.705 201.705;" class="ng-star-inserted"><g><g><path d="M39.41,67.344c-2.506-2.069-1.652-7.699,1.9-12.546c3.576-4.867,8.497-7.125,11.003-5.036   c2.512,2.081,1.658,7.699-1.9,12.551C46.849,67.187,41.922,69.433,39.41,67.344z M111.832,26.914c0-4.699-3.579-8.512-7.997-8.512   c-4.43,0-8.009,3.812-8.009,8.512c0,4.69,3.579,8.497,8.009,8.497C108.264,35.423,111.832,31.616,111.832,26.914z M9.655,128.497   c-0.647,0-1.265-0.09-1.889-0.143c1.617,18.997,7.445,36.99,17.085,52.771c0.018-0.792,0-1.525,0.074-2.394l0.168-2.246   l1.755-1.401c0.092-0.076,0.29-0.213,0.538-0.378c-7.903-14.092-12.72-29.896-14.168-46.518   C12.017,128.354,10.817,128.497,9.655,128.497z M104.482,11.484c25.141,0,47.957,11.747,64.554,30.735   c0.308-0.012,0.58-0.062,0.898-0.062c1.975,0,4.02,0.136,6.101,0.396l0.118-0.142c-17.786-22.284-43.285-36.375-71.671-36.375   c-51.164,0-93.127,45.528-96.86,103.061c2.243-0.485,4.211-1.064,5.512-1.69C17.511,53.69,56.799,11.484,104.482,11.484z    M47.924,96.105c7.392-30.032,29.932-51.95,56.551-51.95c4.375,0,8.633,0.635,12.735,1.755c3.688,0.946,14.588,5.03,20.144,8.275   c1.064,0.381,1.886,0.913,2.507,1.507c0.674-0.75,1.389-1.472,2.14-2.198c-10.593-9.266-23.525-14.774-37.519-14.774   c-30.627,0-56.286,26.141-62.87,61.085c0.272,0.041,0.532,0.059,0.807,0.106C43.713,98.842,45.602,97.477,47.924,96.105z    M199.11,92.316c-0.591,3.077-1.844,5.929-4.185,7.832c0.804,5.639,1.336,11.384,1.336,17.271c0,22.2-5.899,43.373-17.041,61.401   l-22.81-14.896c0.095-0.142,0.165-0.319,0.271-0.474c-0.591,0.013-1.141,0.048-1.784,0.048c-0.958,0-1.986-0.023-3.074-0.071   l-1.466-0.07c-0.732,1.253-0.384,2.86,0.84,3.664l27.349,17.856c0.461,0.302,0.97,0.438,1.489,0.438   c0.881,0,1.762-0.438,2.282-1.229c12.69-19.422,19.387-42.48,19.387-66.691C201.699,108.778,200.753,100.396,199.11,92.316z    M58.233,162.731c-1.9,0.201-3.939,0.349-6.139,0.414c0.154,0.26,0.287,0.531,0.438,0.78l-3.298,2.151   c0.26,1.785,0.47,3.889,0.603,6.123l7.917-5.166c1.265-0.845,1.617-2.518,0.795-3.771   C58.446,163.086,58.348,162.909,58.233,162.731z M151.835,156.265c0,0-7.695,2.199-3.948-5.271l0.65-2.861   c0,0-8.789,2.648-8.789-2.866c0,0-36.479,12.081-54.06,0.437c0,0-5.491-2.866-6.809,0.656c0,0-0.659,12.307-33.18,11.645   c0,0-2.639-0.42-2.417,4.173c0,0,4.395,19.79-1.978,26.599c-6.375,6.81-8.564,9.008-9.224,4.628l-0.219-5.071   c0,0-2.42-0.881-1.761-9.215c0,0,2.196-1.762,4.619-0.65c0,0,1.971-15.829-1.54-23.087c0,0-5.932-9.883,4.838-10.982   c0,0,7.909,1.974,6.59-3.942c0,0-12.741-16.929-5.054-29.447c0,0-0.883-2.648-4.619,1.117c0,0-30.104,22.833-34.936,3.286   c0,0,14.074-0.815,18.238-5.272c4.454-4.775,13.187-7.477,25.718-4.61c0,0,14.277-14.96,36.697-8.804c0,0,8.727,2.692,18.643,2.35   c-3.215-3.603-8.571-4.347-8.571-4.347c-16.656-3.807-20.46-9.918-20.46-9.918c-5.905-6.328,4.22-14.126,4.22-14.126   c-1.058-0.63-1.894-1.691-1.894-1.691c-3.801-2.317,13.278-4.847,13.278-4.847c-0.943-3.065,27.63-3.166,27.63-3.166   c-1.466-6.537,4.433-9.909,4.433-9.909c12.649-5.29,15.604,7.784,15.604,7.784c4.209-0.201,3.382,2.397,2.577,3.003   c-0.957,0.745-3.937,0.047-4.268,1.215c-0.426,1.537,0.769,5.098-0.213,6.339c-0.33,0.417-1.737,0.63-1.737,0.63   c-1.052,2.208-0.532,3.413-1.146,3.375c-1.253-0.101-6.384-0.417-6.384-0.417c-0.633,2.326-11.396,10.974-11.396,10.974   c0.698,2.506,8.713,2.645,14.08,2.438c3.7-3.774,7.932-8.704,9.871-13.205c3.31-7.646,9.835-18.303,21.526-23.193   c0.077-0.08,0.124-0.178,0.201-0.249c0.674-0.571,1.561-0.78,2.519-0.745c5.331-1.688,11.608-2.246,19.044-0.878l7.034-8.783   l0.213,6.599l4.622-5.062l-2.565,10.988c0,0,4.988,1.756,6.159,27.55c0,0,3.228,15.817-3.807,17.579c0,0-6.064,2.323-8.926-4.602   c-3.215,0.636-7.436,1.339-12.731,1.835c-0.378,3.469-1.312,7.684-3.617,11.036c0,0-1.111,7.689,2.411,10.332   c0,0,3.954,7.252-2.411,12.513c0,0-2.424,3.299,4.397,3.299c0,0,12.081-3.299,11.856,6.164c0,0,5.935,7.685-4.385,12.969   l-9.896,6.158c0,0-4.403,1.975-14.505,1.537L151.835,156.265z M168.315,87.487c0,0,0.124,1.387,0.101,3.414   c4.238-0.405,7.802-0.943,10.651-1.478c-2.329-1.833-7.578-6.608-7.229-12.268C171.837,77.149,168.315,74.292,168.315,87.487z    M160.843,148.581c0,0,6.585,0.438,10.545-7.471C171.388,141.11,162.605,143.746,160.843,148.581z M116.962,93.655h-4.114   l1.218,1.821C115.083,94.944,116.041,94.332,116.962,93.655z" data-original="#000000" fill="currentColor" class="active-path"></path></g></g></svg>