<svg  width="20" height="20" color="white" xmlns="http://www.w3.org/2000/svg" xmlns:xlink="http://www.w3.org/1999/xlink"><defs ><path  fill="currentColor" d="M0 4.004A3.997 3.997 0 0 1 3.998 0h27.004A3.999 3.999 0 0 1 35 4.004v23.992A3.997 3.997 0 0 1 31.002 32H3.998A3.999 3.999 0 0 1 0 27.996V4.004z" id="b"></path><filter  x="-2.9%" y="-3.1%" width="105.7%" height="106.3%" filterUnits="objectBoundingBox" id="a"><feOffset  dy="2" in="SourceAlpha" result="shadowOffsetInner1"></feOffset><feComposite  in="shadowOffsetInner1" in2="SourceAlpha" operator="arithmetic" k2="-1" k3="1" result="shadowInnerInner1"></feComposite><feColorMatrix  values="0 0 0 0 1 0 0 0 0 1 0 0 0 0 1 0 0 0 0.5 0" in="shadowInnerInner1"></feColorMatrix></filter></defs><g  fill="none" fill-rule="evenodd"><g  transform="translate(-7 -6)"><use  fill="#000" filter="url(#a)" xlink:href="#b"></use><path  stroke="#BC8C17" d="M.5 4.004v23.992A3.499 3.499 0 0 0 3.998 31.5h27.004a3.497 3.497 0 0 0 3.498-3.504V4.004A3.499 3.499 0 0 0 31.002.5H3.998A3.497 3.497 0 0 0 .5 4.004z" stroke-linejoin="square"></path></g><path  d="M10 4.029c1.635 0 3.144.36 4.527 1.079 1.365.703 2.443 1.655 3.233 2.854.827 1.247 1.24 2.59 1.24 4.028 0 1.44-.413 2.782-1.24 4.03-.79 1.214-1.868 2.173-3.233 2.877A9.596 9.596 0 0 1 10 20a9.596 9.596 0 0 1-4.527-1.103c-1.365-.704-2.443-1.663-3.233-2.878C1.413 14.772 1 13.43 1 11.99h2.263c0 1.088.301 2.09.903 3.01.602.92 1.42 1.647 2.452 2.182 1.033.536 2.16.804 3.382.804s2.349-.268 3.382-.804c1.033-.535 1.85-1.263 2.452-2.182.602-.92.903-1.922.903-3.01 0-1.087-.301-2.09-.903-3.01-.602-.918-1.42-1.646-2.452-2.181-1.033-.536-2.16-.804-3.382-.804v4.029L4.368 5.012 10 0v4.029z" fill="currentColor"></path></g></svg>