<svg _ngcontent-ng-c111774183="" height="22" color="white" viewBox="0 0 22 22" width="22" xmlns="http://www.w3.org/2000/svg">
  <path _ngcontent-ng-c111774183="" d="m29.6697865 25.8286042h-1.0026615l-.3764635-.3143021c1.191151-1.4455833 1.9434479-3.2687188 1.9434479-5.342849-.0000573-4.5258698-3.6359011-8.1714531-8.14825-8.1714531-4.4505886 0-8.0858594 3.6455833-8.0858594 8.1714531s3.6352708 8.1713959 8.1483073 8.1713959c2.0058385 0 3.886151-.7543594 5.3276094-1.948375l.3758906.3143593v1.0055261l6.2678802 6.2856406 1.8803125-1.8856979zm-7.5214792 0c-3.1339688 0-5.6411094-2.5143594-5.6411094-5.6571511 0-3.1429062 2.5071406-5.6570937 5.6411094-5.6570937 3.1338542 0 5.6410521 2.5141875 5.6410521 5.6570937 0 3.1427917-2.5071979 5.6571511-5.6410521 5.6571511z" fill="currentColor" transform="translate(-14 -12)"/>
</svg>
