<?xml version="1.0" encoding="utf-8"?>
<!-- Generator: Adobe Illustrator 27.5.0, SVG Export Plug-In . SVG Version: 6.00 Build 0)  -->
<svg version="1.1" xmlns="http://www.w3.org/2000/svg" xmlns:xlink="http://www.w3.org/1999/xlink" x="0px" y="0px"
	 viewBox="0 0 2200 2200" style="enable-background:new 0 0 2200 2200;" xml:space="preserve">
<g id="background">
	<rect style="fill:#FFFFFF;" width="2200" height="2200"/>
</g>
<g id="Objects">
	<g>
		<g>
			<path style="fill:#D63C3C;" d="M1850.844,1656.348c0,58.621-47.52,106.126-106.125,106.126H455.281
				c-58.605,0-106.126-47.504-106.126-106.126c0-20.133,5.688-39.377,15.883-55.842c10.196-16.481,24.899-30.151,42.916-39.135
				c38.327-19.099,69.592-48.215,91.276-83.246c21.7-35.047,33.802-76.023,33.802-118.842V943.523
				c0-267.091,184.686-491.041,433.324-551.116c-0.63-5.203-0.937-10.487-0.937-15.851c0-74.327,60.253-134.58,134.58-134.58
				s134.58,60.253,134.58,134.58c0,5.364-0.307,10.648-0.937,15.851c102.894,24.851,194.833,77.768,267.269,150.204
				c102.603,102.603,166.055,244.341,166.055,400.912v415.761c0,85.637,48.442,163.89,125.079,202.088
				c18.016,8.984,32.72,22.653,42.915,39.135C1845.157,1616.971,1850.844,1636.215,1850.844,1656.348z"/>
			<path style="fill:#D63C3C;" d="M1285.409,1814.019c0,102.399-83.011,185.409-185.409,185.409s-185.409-83.01-185.409-185.409
				H1285.409z"/>
			<path style="fill:#D63C3C;" d="M433.478,828.132c-1.707,0-3.438-0.174-5.176-0.538c-13.594-2.845-22.307-16.171-19.462-29.764
				c21.458-102.531,64.55-197.012,128.079-280.82c61.729-81.433,141.933-149.78,231.944-197.653
				c12.26-6.521,27.487-1.867,34.009,10.394c6.522,12.261,1.868,27.487-10.394,34.009c-83.616,44.471-158.129,107.97-215.482,183.63
				c-58.997,77.829-99.01,165.555-118.931,260.742C455.584,819.988,445.129,828.132,433.478,828.132z"/>
			<path style="fill:#D63C3C;" d="M303.764,813.526c-1.584,0-3.187-0.15-4.8-0.462c-13.635-2.635-22.552-15.825-19.917-29.461
				c23.707-122.672,75.953-240.579,151.093-340.975c73.991-98.86,170.67-181.552,279.591-239.136
				c12.276-6.492,27.492-1.8,33.982,10.477c6.492,12.278,1.8,27.492-10.477,33.983c-102.385,54.13-193.271,131.869-262.832,224.811
				c-70.611,94.345-119.706,205.132-141.98,320.384C326.101,805.17,315.569,813.526,303.764,813.526z"/>
			<path style="fill:#BC3942;" d="M1766.522,828.132c-11.651,0-22.105-8.143-24.587-19.999
				c-19.921-95.187-59.934-182.913-118.932-260.742c-57.353-75.661-131.866-139.159-215.482-183.63
				c-12.262-6.522-16.915-21.748-10.394-34.009c6.522-12.261,21.749-16.916,34.009-10.394
				c90.011,47.873,170.216,116.22,231.944,197.653c63.529,83.808,106.62,178.29,128.079,280.82
				c2.845,13.593-5.868,26.919-19.462,29.764C1769.962,827.957,1768.228,828.132,1766.522,828.132z"/>
			<path style="fill:#BC3942;" d="M1896.236,813.526c-11.806,0-22.337-8.355-24.66-20.379
				c-22.274-115.252-71.37-226.039-141.98-320.384c-69.561-92.942-160.447-170.681-262.832-224.811
				c-12.278-6.491-16.969-21.705-10.477-33.983c6.492-12.275,21.701-16.97,33.982-10.477
				c108.921,57.584,205.601,140.276,279.591,239.136c75.139,100.396,127.386,218.303,151.093,340.975
				c2.635,13.636-6.282,26.826-19.917,29.461C1899.425,813.376,1897.819,813.526,1896.236,813.526z"/>
		</g>
		<path style="fill:#BC3942;" d="M1850.84,1656.349c0,58.62-47.52,106.12-106.12,106.12H1100V241.979
			c74.33,0,134.58,60.25,134.58,134.58c0,5.36-0.31,10.65-0.94,15.85c102.9,24.85,194.84,77.77,267.27,150.2
			c102.6,102.61,166.06,244.34,166.06,400.91v415.76c0,85.64,48.44,163.89,125.08,202.09c18.01,8.99,32.72,22.66,42.91,39.14
			C1845.16,1616.969,1850.84,1636.219,1850.84,1656.349z"/>
		<path style="fill:#BC3942;" d="M1285.41,1814.019c0,102.4-83.01,185.41-185.41,185.41v-185.41H1285.41z"/>
	</g>
</g>
</svg>
