<svg width="24" height="24" viewBox="0 0 24 24" fill="none" xmlns="http://www.w3.org/2000/svg">
<path fill-rule="evenodd" clip-rule="evenodd" d="M2.5 16.1063C2.49938 16.5064 2.60406 16.8997 2.80353 17.2465C3.0028 17.593 3.28965 17.8811 3.63533 18.0817L3.63638 18.0823L10.7589 22.1952L10.76 22.1958C11.1076 22.3951 11.5013 22.5 11.902 22.5C12.3027 22.5 12.6964 22.3951 13.044 22.1958L13.0451 22.1952L20.1619 18.0856L20.1652 18.0837C20.5104 17.8807 20.797 17.5915 20.9966 17.2443C21.1966 16.8966 21.3025 16.5027 21.304 16.1016V7.89695C21.3037 7.49601 21.1984 7.10214 20.9985 6.75457C20.799 6.40772 20.5123 6.11907 20.1669 5.91727L20.1647 5.91603L13.0451 1.80483L13.0437 1.80403C12.6961 1.60482 12.3026 1.5 11.902 1.5C11.5014 1.5 11.1078 1.60482 10.7603 1.80403L10.7589 1.80483L3.63856 5.91642C3.29343 6.11935 3.00698 6.40856 2.80735 6.75567C2.60737 7.1034 2.50145 7.49723 2.5 7.89835V16.1063ZM1 7.89601C1.00186 7.23323 1.17663 6.58241 1.50705 6.00787C1.83746 5.43333 2.31208 4.95495 2.884 4.62001L10.012 0.504022C10.5871 0.173778 11.2388 0 11.902 0C12.5652 0 13.2168 0.173778 13.792 0.504022L20.92 4.62001C21.4929 4.95385 21.9683 5.43199 22.2988 6.00678C22.6294 6.58157 22.8035 7.23295 22.804 7.89601V16.104C22.8021 16.7668 22.6273 17.4176 22.2969 17.9921C21.9665 18.5667 21.4919 19.0451 20.92 19.38L13.792 23.496C13.2168 23.8262 12.5652 24 11.902 24C11.2388 24 10.5871 23.8262 10.012 23.496L2.884 19.38C2.31013 19.0473 1.83392 18.5694 1.50322 17.9943C1.17252 17.4193 0.998975 16.7673 1 16.104V7.89601Z" fill="white"/>
<path d="M14.7273 9.22727C14.7273 9.76668 14.5673 10.294 14.2676 10.7425C13.968 11.191 13.542 11.5405 13.0437 11.7469C12.5453 11.9534 11.997 12.0074 11.4679 11.9021C10.9389 11.7969 10.4529 11.5372 10.0715 11.1557C9.69011 10.7743 9.43036 10.2884 9.32513 9.75934C9.2199 9.2303 9.27391 8.68193 9.48033 8.18359C9.68675 7.68525 10.0363 7.2593 10.4848 6.95963C10.9333 6.65995 11.4606 6.5 12 6.5C12.7233 6.5 13.417 6.78734 13.9285 7.2988C14.4399 7.81026 14.7273 8.50395 14.7273 9.22727Z" fill="white"/>
<path d="M12 12.8636C9.24422 12.8636 7 14.7727 7 17.125C7 17.2003 7.02898 17.2726 7.08055 17.3259C7.13213 17.3792 7.20209 17.4091 7.27503 17.4091H16.725C16.7979 17.4091 16.8679 17.3792 16.9194 17.3259C16.971 17.2726 17 17.2003 17 17.125C17 14.7727 14.7558 12.8636 12 12.8636Z" fill="white"/>
</svg>
