<?xml version="1.0" encoding="utf-8"?><!--Generator: Adobe Illustrator 16.0.0, SVG Export Plug-In . SVG Version: 6.00 Build 0)--><!DOCTYPE svg PUBLIC "-//W3C//DTD SVG 1.1//EN" "http://www.w3.org/Graphics/SVG/1.1/DTD/svg11.dtd"><svg version="1.1" xmlns="http://www.w3.org/2000/svg" xmlns:xlink="http://www.w3.org/1999/xlink" x="0px" y="0px" width="144px" height="78px" enable-background="new 0 0 144 78" xml:space="preserve"><g><path fill="#1A5DA4" d="M143.62,69.503c0,4.153-2.635,7.497-5.876,7.497H6.461c-3.242,0-5.875-3.343-5.875-7.497V8.521
		c0-4.154,2.633-7.496,5.875-7.496h131.284c3.241,0,5.876,3.342,5.876,7.496L143.62,69.503L143.62,69.503z"/><path fill="#2D8FCE" d="M76.964,69.402c0,4.153-2.228,7.598-4.963,7.598H5.346c-2.735,0-4.964-3.343-4.964-7.598V8.521
		C0.281,4.367,2.509,1.024,5.346,1.024h66.655c2.735,0,4.963,3.343,4.963,7.597V69.402z"/><g><g><path fill="#FFFFFF" d="M41.712,44.786h6.686c1.519,0,2.837-1.217,2.837-2.837s-1.216-2.837-2.837-2.837h-6.686
				c-0.912-1.315-2.33-2.126-4.053-2.126c0,0,0,0-0.101,0l-6.078-8.611c-0.912-1.215-2.634-1.52-3.85-0.607
				c-1.216,0.912-1.52,2.634-0.608,3.85l6.078,8.609c-0.203,0.509-0.304,1.115-0.304,1.724c0,2.734,2.229,4.964,4.964,4.964
				C39.382,47.015,40.902,46.104,41.712,44.786z"/><path fill="#FFFFFF" d="M58.326,62.312c5.166-5.167,8.306-12.359,8.306-20.261c0-16.004-12.966-28.871-28.87-28.871
				c-15.904,0-28.871,12.967-28.871,28.871c0,7.901,3.141,14.994,8.307,20.261l-2.735,2.532c-1.419,1.419-1.419,3.748,0,5.168
				c0.708,0.706,1.62,1.113,2.633,1.113c1.013,0,1.925-0.406,2.634-1.113l3.241-3.243c4.356,2.533,9.32,4.053,14.688,4.053
				c5.369,0,10.435-1.52,14.688-4.053l3.242,3.243c0.709,0.706,1.621,1.113,2.634,1.113c0.912,0,1.925-0.406,2.634-1.113
				c1.417-1.42,1.417-3.749,0-5.168L58.326,62.312z M37.66,59.07c-1.013,0-1.823,0.81-1.823,1.822v2.532
				c-10.333-0.911-18.639-9.116-19.45-19.449h2.533c1.013,0,1.824-0.81,1.824-1.821c0-1.015-0.811-1.825-1.824-1.825h-2.533
				c0.911-10.332,9.117-18.64,19.45-19.45v2.533c0,1.013,0.81,1.823,1.823,1.823c1.013,0,1.824-0.811,1.824-1.823v-2.533
				c10.333,0.912,18.639,9.118,19.449,19.45H56.4c-1.013,0-1.822,0.811-1.822,1.825c0,1.012,0.81,1.821,1.822,1.821h2.634
				c-0.912,10.23-9.118,18.538-19.45,19.449v-2.532C39.585,59.88,38.673,59.07,37.66,59.07z"/><path fill="#FFFFFF" d="M30.265,11.66c-2.229-1.62-4.963-2.633-8.002-2.633c-7.394,0-13.473,5.977-13.473,13.473
				c0,1.823,0.405,3.545,1.012,5.166C14.057,19.664,21.453,13.788,30.265,11.66z"/><path fill="#FFFFFF" d="M65.417,27.565c0.709-1.621,1.013-3.343,1.013-5.167c0-7.395-5.977-13.473-13.473-13.473
				c-2.937,0-5.774,1.013-8.001,2.634C53.97,13.788,61.365,19.664,65.417,27.565z"/></g></g><g><path fill="#FFFFFF" d="M123.766,22.703h-19.653v12.561h16.412c1.518,0,2.633,0.305,3.444,1.014
			c0.709,0.709,1.113,1.62,1.113,2.735c0,1.112-0.403,2.025-1.113,2.734c-0.812,0.709-1.927,1.014-3.444,1.014h-16.412v16.207
			c0,2.027-0.505,3.546-1.418,4.56c-0.911,1.013-2.126,1.519-3.544,1.519c-1.521,0-2.635-0.506-3.647-1.519
			c-1.012-1.012-1.419-2.532-1.419-4.56V21.183c0-1.417,0.203-2.634,0.609-3.545c0.404-0.911,1.114-1.52,2.025-2.026
			c0.91-0.404,2.025-0.607,3.444-0.607h23.501c1.621,0,2.736,0.304,3.545,1.014c0.812,0.709,1.115,1.62,1.115,2.734
			c0,1.113-0.405,2.127-1.115,2.836C126.602,22.398,125.387,22.703,123.766,22.703z"/></g></g></svg>